<svg width="20" height="20" viewBox="0 0 20 20" fill="none" xmlns="http://www.w3.org/2000/svg">
<path d="M8.57504 3.21668C5.6105 7.76249 4.12126 10.3575 1.51671 15C1.37118 15.252 1.29418 15.5378 1.29336 15.8288C1.29255 16.1198 1.36795 16.406 1.51206 16.6588C1.65618 16.9116 1.86398 17.1223 2.1148 17.2699C4.95753 17.9566 16.766 18.7361 18.488 16.6588C18.6321 16.406 18.7075 16.1198 18.7067 15.8288C18.7059 15.5378 18.6289 15.252 18.4834 15C15.7008 10.5383 14.1461 7.99502 11.425 3.21668C11.2765 2.97177 11.0673 2.76928 10.8177 2.62875C10.5681 2.48822 10.2865 2.4144 10 2.4144C9.71359 2.4144 9.43198 2.48822 9.18238 2.62875C8.93277 2.76928 8.7236 2.97177 8.57504 3.21668Z" fill="#FF0000"/>
<path d="M10 7.5V10.8333" stroke="white" stroke-width="2" stroke-linecap="round" stroke-linejoin="round"/>
<path d="M10 14.1667H10.0075" stroke="white" stroke-width="2" stroke-linecap="round" stroke-linejoin="round"/>
</svg>
